<?xml version="1.0" standalone="no"?>
<!DOCTYPE svg PUBLIC "-//W3C//DTD SVG 20010904//EN"
 "http://www.w3.org/TR/2001/REC-SVG-20010904/DTD/svg10.dtd">
<svg version="1.0" xmlns="http://www.w3.org/2000/svg"
 width="514.000000pt" height="514.000000pt" viewBox="0 0 514.000000 514.000000"
 preserveAspectRatio="xMidYMid meet">
<metadata>
Created by potrace 1.14, written by Peter Selinger 2001-2017
</metadata>
<g transform="translate(0.000000,514.000000) scale(0.100000,-0.100000)"
fill="#000000" stroke="none">
<path d="M3976 4672 c71 -117 77 -153 81 -477 l3 -290 67 -212 67 -213 39 0
c30 0 38 3 34 14 -3 8 -26 79 -51 158 l-45 143 -4 295 c-4 312 -8 343 -59 445
-28 56 -93 139 -133 169 l-33 26 34 -58z"/>
<path d="M1000 4663 c-26 -10 -65 -37 -95 -67 -93 -93 -85 113 -85 -2118 l0
-1969 25 -24 c41 -42 71 -34 192 53 59 43 367 266 683 496 316 230 580 420
587 423 6 3 322 -221 700 -496 734 -534 720 -526 774 -482 l24 19 5 891 5 890
240 -174 c252 -184 273 -194 322 -160 43 30 39 54 -72 394 -58 179 -105 330
-105 337 0 6 128 104 284 218 233 168 285 211 291 234 7 36 -8 77 -34 91 -13
7 -143 11 -373 11 l-353 0 -103 318 -102 317 0 281 c0 312 -6 351 -63 425 -17
23 -57 56 -87 73 l-55 31 -1280 2 c-1146 1 -1285 0 -1325 -14z"/>
<path d="M4980 3327 c0 -2 10 -26 22 -53 32 -72 30 -181 -4 -254 -13 -30 -36
-68 -50 -85 -14 -16 -123 -100 -242 -185 -118 -85 -215 -160 -216 -166 0 -5
37 -122 81 -260 71 -215 82 -259 82 -321 0 -61 -4 -81 -32 -137 -93 -189 -313
-241 -497 -116 l-59 40 -5 -663 -5 -662 -26 -55 c-37 -80 -81 -125 -157 -162
-59 -29 -76 -33 -147 -33 -61 0 -91 6 -127 22 -27 12 -48 20 -48 18 0 -2 39
-31 87 -65 102 -71 171 -95 250 -87 124 13 242 132 272 275 7 36 11 254 11
678 l0 626 39 -31 c72 -57 127 -76 221 -76 102 0 155 21 228 89 69 65 105 148
105 241 -1 60 -12 105 -82 316 -44 136 -81 251 -81 256 0 5 87 72 193 148 105
77 213 159 238 182 122 114 137 312 34 447 -25 33 -85 84 -85 73z"/>
<path d="M1679 700 c-692 -504 -681 -497 -804 -488 -34 3 -82 15 -108 26 -44
20 -47 20 -37 2 5 -10 31 -37 56 -59 87 -77 231 -101 340 -57 22 9 330 221
684 470 355 250 650 451 655 448 30 -19 -46 42 -96 77 l-57 40 -633 -459z"/>
<path d="M2520 1006 c0 -2 8 -10 18 -17 15 -13 16 -12 3 4 -13 16 -21 21 -21
13z"/>
<path d="M2560 976 c0 -2 8 -10 18 -17 15 -13 16 -12 3 4 -13 16 -21 21 -21
13z"/>
<path d="M2630 926 c0 -2 8 -10 18 -17 15 -13 16 -12 3 4 -13 16 -21 21 -21
13z"/>
<path d="M2670 896 c0 -2 8 -10 18 -17 15 -13 16 -12 3 4 -13 16 -21 21 -21
13z"/>
<path d="M2740 846 c0 -2 8 -10 18 -17 15 -13 16 -12 3 4 -13 16 -21 21 -21
13z"/>
<path d="M2780 816 c0 -2 8 -10 18 -17 15 -13 16 -12 3 4 -13 16 -21 21 -21
13z"/>
<path d="M2850 766 c0 -2 8 -10 18 -17 15 -13 16 -12 3 4 -13 16 -21 21 -21
13z"/>
<path d="M2890 736 c0 -2 8 -10 18 -17 15 -13 16 -12 3 4 -13 16 -21 21 -21
13z"/>
<path d="M2960 686 c0 -2 8 -10 18 -17 15 -13 16 -12 3 4 -13 16 -21 21 -21
13z"/>
<path d="M3000 656 c0 -2 8 -10 18 -17 15 -13 16 -12 3 4 -13 16 -21 21 -21
13z"/>
<path d="M3070 606 c0 -2 8 -10 18 -17 15 -13 16 -12 3 4 -13 16 -21 21 -21
13z"/>
<path d="M3110 576 c0 -2 8 -10 18 -17 15 -13 16 -12 3 4 -13 16 -21 21 -21
13z"/>
<path d="M3180 526 c0 -2 8 -10 18 -17 15 -13 16 -12 3 4 -13 16 -21 21 -21
13z"/>
<path d="M3220 496 c0 -2 8 -10 18 -17 15 -13 16 -12 3 4 -13 16 -21 21 -21
13z"/>
<path d="M3290 446 c0 -2 8 -10 18 -17 15 -13 16 -12 3 4 -13 16 -21 21 -21
13z"/>
<path d="M3330 416 c0 -2 8 -10 18 -17 15 -13 16 -12 3 4 -13 16 -21 21 -21
13z"/>
<path d="M3400 366 c0 -2 8 -10 18 -17 15 -13 16 -12 3 4 -13 16 -21 21 -21
13z"/>
<path d="M3440 336 c0 -2 8 -10 18 -17 15 -13 16 -12 3 4 -13 16 -21 21 -21
13z"/>
<path d="M3510 286 c0 -2 8 -10 18 -17 15 -13 16 -12 3 4 -13 16 -21 21 -21
13z"/>
</g>
</svg>
